<svg height='300px' width='300px'  fill="#000000" xmlns="http://www.w3.org/2000/svg" data-name="Layer 1" viewBox="0 0 512 512" x="0px" y="0px"><title>cl2</title><path d="M481.28,38H431v71.76c0,23.47-18,42.24-40.6,42.24H377.6C355,152,337,133.24,337,109.76V38H183v71.76c0,23.47-18.34,42.24-40.92,42.24h-12.8C106.7,152,88,133.24,88,109.76V38H30.72C13.82,38,0,52.75,0,70.31V480.07C0,497.63,13.82,512,30.72,512H481.28c16.9,0,30.72-14.37,30.72-31.93V70.31C512,52.75,498.18,38,481.28,38ZM160,428.25A11.75,11.75,0,0,1,148.25,440H81.75A11.75,11.75,0,0,1,70,428.25v-52.5A11.75,11.75,0,0,1,81.75,364h66.5A11.75,11.75,0,0,1,160,375.75v52.5Zm0-127A11.75,11.75,0,0,1,148.25,313H81.75A11.75,11.75,0,0,1,70,301.25v-52.5A11.75,11.75,0,0,1,81.75,237h66.5A11.75,11.75,0,0,1,160,248.75v52.5Zm141,127A11.75,11.75,0,0,1,289.25,440h-66.5A11.75,11.75,0,0,1,211,428.25v-52.5A11.75,11.75,0,0,1,222.75,364h66.5A11.75,11.75,0,0,1,301,375.75v52.5Zm0-127A11.75,11.75,0,0,1,289.25,313h-66.5A11.75,11.75,0,0,1,211,301.25v-52.5A11.75,11.75,0,0,1,222.75,237h66.5A11.75,11.75,0,0,1,301,248.75v52.5Zm144,127A11.75,11.75,0,0,1,433.25,440h-66.5A11.75,11.75,0,0,1,355,428.25v-52.5A11.75,11.75,0,0,1,366.75,364h66.5A11.75,11.75,0,0,1,445,375.75v52.5Zm0-127A11.75,11.75,0,0,1,433.25,313h-66.5A11.75,11.75,0,0,1,355,301.25v-52.5A11.75,11.75,0,0,1,366.75,237h66.5A11.75,11.75,0,0,1,445,248.75v52.5Z"></path><path d="M142.08,134c12.7,0,22.92-11,22.92-24.24V23.95C165,10.74,154.78,0,142.08,0h-12.8C116.58,0,106,10.74,106,23.95v85.82C106,123,116.58,134,129.28,134h12.8Z"></path><path d="M390.4,134c12.7,0,22.6-11,22.6-24.24V23.94C413,10.74,403.1,0,390.4,0H377.6C364.9,0,355,10.74,355,23.94v85.82C355,123,364.9,134,377.6,134h12.8Z"></path></svg>