<svg height='300px' width='300px'  fill="#000000" xmlns="http://www.w3.org/2000/svg" xmlns:xlink="http://www.w3.org/1999/xlink" version="1.1" x="0px" y="0px" viewBox="0 0 100 100" enable-background="new 0 0 100 100" xml:space="preserve"><path d="M94.279,48.014C82.709,31.207,65.143,21.389,50,21.389c-15.143,0-32.709,9.818-44.281,26.625C5.346,48.556,5,49.278,5,50  c0,0.723,0.346,1.443,0.719,1.986C17.291,68.793,34.857,78.611,50,78.611c15.143,0,32.709-9.818,44.279-26.625  C94.654,51.443,95,50.723,95,50C95,49.278,94.654,48.556,94.279,48.014z M50,70.664c-11.412,0-20.664-9.252-20.664-20.664  S38.588,29.336,50,29.336S70.664,38.588,70.664,50S61.412,70.664,50,70.664z"></path><path d="M57.848,47.795c-3.115,0-5.643-2.527-5.643-5.643c0-2.188,1.247-4.081,3.066-5.018c-1.627-0.668-3.405-1.042-5.272-1.042  c-7.681,0-13.908,6.228-13.908,13.908c0,7.68,6.228,13.908,13.909,13.908c7.682,0,13.908-6.227,13.908-13.908  c0-1.868-0.374-3.646-1.042-5.273C61.93,46.547,60.037,47.795,57.848,47.795z"></path></svg>